<?xml version="1.0" standalone="no"?>
<!DOCTYPE svg PUBLIC "-//W3C//DTD SVG 20010904//EN"
 "http://www.w3.org/TR/2001/REC-SVG-20010904/DTD/svg10.dtd">
<svg version="1.0" xmlns="http://www.w3.org/2000/svg"
 width="593.000000pt" height="421.000000pt" viewBox="0 0 593.000000 421.000000"
 preserveAspectRatio="xMidYMid meet">
<metadata>
Created by potrace 1.16, written by Peter Selinger 2001-2019
</metadata>
<g transform="translate(0.000000,421.000000) scale(0.100000,-0.100000)"
fill="#000000" stroke="none">
<path d="M1942 4021 c-65 -41 -62 -3 -62 -955 l0 -864 -122 -6 c-68 -4 -276
-13 -463 -21 -945 -40 -1081 -46 -1090 -49 -5 -2 71 -6 170 -10 470 -18 952
-37 1171 -46 133 -6 263 -10 288 -10 l46 0 0 -872 c0 -811 1 -875 18 -908 36
-72 94 -81 348 -55 435 46 907 189 1364 413 96 48 178 88 183 90 4 2 7 -39 7
-92 l0 -96 225 0 225 0 0 595 0 595 -146 0 -145 0 -51 -55 c-63 -70 -164 -120
-272 -137 l-76 -13 0 -177 0 -178 120 0 120 0 0 -70 0 -70 -52 -30 c-95 -56
-390 -198 -523 -251 -189 -76 -425 -153 -604 -198 -174 -44 -380 -81 -447 -81
l-44 0 0 791 0 790 93 -5 c50 -4 209 -11 352 -16 319 -12 433 -17 890 -35 198
-8 554 -21 790 -30 237 -9 481 -19 544 -23 l114 -7 -178 -230 c-98 -126 -214
-277 -259 -334 -44 -58 -74 -101 -66 -96 38 23 1266 838 1273 844 6 6 -1106
739 -1277 841 l-41 24 46 -54 c270 -324 489 -589 489 -593 0 -5 -76 -9 -615
-32 -192 -9 -503 -22 -690 -30 -637 -28 -1040 -45 -1180 -50 -77 -3 -173 -8
-212 -11 l-73 -6 0 790 0 790 43 -5 c396 -46 862 -184 1273 -378 l114 -54 0
-95 0 -96 120 0 120 0 0 -315 0 -315 225 0 225 0 -2 593 -3 592 -147 2 -146 2
-26 -38 c-31 -44 -62 -69 -133 -105 l-51 -25 -164 78 c-501 241 -1037 389
-1473 407 -120 5 -133 4 -163 -15z"/>
<path d="M2630 3205 l0 -135 -135 0 -135 0 0 -130 0 -130 135 0 135 0 0 -135
0 -135 130 0 129 0 3 133 3 132 133 3 132 3 0 129 0 130 -135 0 -135 0 0 135
0 135 -130 0 -130 0 0 -135z"/>
<path d="M2360 1260 l0 -150 405 0 405 0 0 150 0 150 -405 0 -405 0 0 -150z"/>
</g>
</svg>
